<svg width="279" height="60" viewBox="0 0 279 60" fill="none" xmlns="http://www.w3.org/2000/svg">
<g clip-path="url(#clip0_1_1003)">
<path d="M44.9508 59.2131H54V1.27869H44.9508V59.2131ZM71.6066 0C62.6557 0 58.0328 5.21311 58.0328 14.5574V44.6557C58.0328 53.9016 62.6557 59.2131 71.6066 59.2131C80.5574 59.2131 85.1803 53.9016 85.1803 44.6557V26.2623H72.4918V34.5246H76.6229V45.1475C76.6229 49.2787 74.8525 50.7541 71.9016 50.7541C69.0492 50.7541 67.1803 49.2787 67.1803 45.1475V13.9672C67.1803 9.83607 68.9508 8.26229 71.9016 8.26229C74.7541 8.26229 76.6229 9.83607 76.6229 13.9672V20.1639H85.1803V14.5574C85.1803 5.21311 80.5574 0 71.6066 0ZM27.541 31.2787H27.0492V45.2459C27.0492 37.5738 20.8525 31.2787 13.082 31.2787H0V59.1147H13.082C20.7541 59.1147 27.0492 52.918 27.0492 45.1475V59.1147H27.541C35.2131 59.1147 41.5082 52.918 41.5082 45.1475C41.4098 37.5738 35.2131 31.2787 27.541 31.2787ZM27.541 1.27869H27.0492V15.2459C27.0492 7.57377 20.8525 1.27869 13.082 1.27869H0V29.1148H13.082C20.7541 29.1148 27.0492 22.918 27.0492 15.1475V29.1148H27.541C35.2131 29.1148 41.5082 22.918 41.5082 15.1475C41.4098 7.47541 35.2131 1.27869 27.541 1.27869ZM172.525 0.590164C163.574 0.590164 158.754 5.90164 158.754 15.1475V45.2459C158.754 54.4918 163.672 59.8033 172.525 59.8033C181.475 59.8033 186.295 54.4918 186.295 45.2459V15.1475C186.393 5.90164 181.475 0.590164 172.525 0.590164ZM177.246 45.8361C177.246 49.9672 175.475 51.541 172.525 51.541C169.672 51.541 167.803 49.9672 167.803 45.8361V14.5574C167.803 10.4262 169.574 8.85246 172.525 8.85246C175.377 8.85246 177.246 10.4262 177.246 14.5574V45.8361ZM211.869 1.37705L199.967 26.5574V1.37705H190.82V59.3115H199.869V41.5082L202.721 36.1967L211.574 59.3115H220.918L208.229 27.2459L220.918 1.47541H211.869V1.37705ZM272.754 30.8852C276.787 29.0164 278.754 25.082 278.754 19.1803V14.6557C278.754 5.70492 273.246 1.37705 263.803 1.37705H251.607V59.3115H260.656V35.7049H262.328C266.459 35.7049 269.803 37.6721 269.803 43.082V59.3115H278.852V43.1803C278.852 37.1803 277.377 32.7541 272.754 30.8852ZM269.607 21.2459C269.607 25.8689 266.066 27.3443 262.623 27.3443H260.656V9.54098H263.508C266.754 9.54098 269.607 11.3115 269.607 15.541V21.2459ZM149.115 30.8852C153.148 29.0164 155.115 25.082 155.115 19.1803V14.6557C155.115 5.70492 149.607 1.37705 140.164 1.37705H127.869V59.3115H136.918V35.7049H138.59C142.721 35.7049 146.066 37.6721 146.066 43.082V59.3115H155.115V43.1803C155.213 37.1803 153.639 32.7541 149.115 30.8852ZM145.967 21.2459C145.967 25.8689 142.426 27.3443 138.984 27.3443H136.918V9.54098H139.77C143.016 9.54098 145.869 11.3115 145.869 15.541V21.2459H145.967ZM117.934 28.3279C121.967 26.459 123.836 22.6229 123.836 16.6229V14.5574C123.836 5.60656 118.131 1.27869 108.689 1.27869H96.5902V59.2131H108.689C117.738 59.2131 124.721 54.3934 124.721 45.4426V40.7213C124.721 34.623 122.852 30.1967 117.934 28.3279ZM105.738 9.54098H108.492C111.738 9.54098 114.787 11.3115 114.787 15.541V18.6885C114.787 23.3115 111.049 24.7869 107.705 24.7869H105.738V9.54098ZM115.574 45.1475C115.574 49.4754 111.639 50.8525 108.59 50.8525H105.639V33.1475H108.098C112.23 33.1475 115.574 34.8197 115.574 40.1311V45.1475ZM223.377 49.8689C223.377 55.082 227.607 59.3115 232.82 59.3115H248.164V51.0492H234.885C233.607 51.0492 232.525 49.9672 232.525 48.6885V34.0328H244.918V25.7705H232.426V9.63934H248.164V1.37705H223.377V49.8689Z" fill="url(#paint0_radial_1_1003)"/>
</g>
<defs>
<radialGradient id="paint0_radial_1_1003" cx="0" cy="0" r="1" gradientUnits="userSpaceOnUse" gradientTransform="translate(-0.124723 1.45602) scale(285.627 285.627)">
<stop stop-color="#05D7CD"/>
<stop offset="1" stop-color="#BED210"/>
</radialGradient>
<clipPath id="clip0_1_1003">
<rect width="278.852" height="60" fill="white"/>
</clipPath>
</defs>
</svg>
